<svg width="368" height="298" viewBox="0 0 368 298" fill="none" xmlns="http://www.w3.org/2000/svg">
<path d="M239.971 4.79305L236.334 14.0457C161.802 -15.1161 77.7309 21.6392 48.5692 96.1709L39.3165 92.5336C37.4341 91.7998 35.3283 92.7251 34.6264 94.6075C5.56034 174.116 44.23 262.591 122.367 295.23C124.217 295.996 126.355 295.071 127.089 293.22L130.726 283.968C205.258 313.161 289.329 276.374 318.523 201.842L327.776 205.48C329.658 206.213 331.764 205.288 332.466 203.406C361.532 123.897 322.862 35.4225 244.757 2.78299C242.843 1.98535 240.705 2.94252 239.971 4.79305Z" fill="#6EDBFF" stroke="white" stroke-width="2" stroke-miterlimit="10" stroke-linecap="round" stroke-linejoin="round"/>
<path d="M240.992 105.774L226.316 33.54L219.552 30.5728L235.632 109.795L240.992 105.774Z" fill="black" stroke="black" stroke-width="1.2" stroke-miterlimit="10" stroke-linecap="round" stroke-linejoin="round"/>
<path d="M303.368 188.314C305.378 186.815 305.601 184.741 305.601 180.944C305.537 180.721 305.857 176.031 302.953 173.893C302.347 172.011 303.655 176.605 301.741 175.393L184.296 125.524C180.531 123.259 174.469 123.482 170.768 126.003L24.0977 196.099C18.9927 198.907 20.9071 209.5 24.7358 211.988L146.009 270.057C150.093 272.737 156.761 272.45 160.845 269.387" fill="black"/>
<path d="M24.257 205.352L145.69 263.803C149.519 266.324 155.708 266.037 159.537 263.197L302.283 181.582C305.697 179.062 305.378 175.169 301.645 172.904L183.275 119.079C179.733 116.941 174.086 117.133 170.64 119.494L24.7356 196.323C20.875 198.971 20.6517 202.991 24.257 205.352Z" fill="#6EDBFF" stroke="black" stroke-width="1.2" stroke-miterlimit="10" stroke-linecap="round" stroke-linejoin="round"/>
<path d="M35.6157 198.524L154.624 254.04L288.468 179.7L174.246 127.981L35.6157 198.524Z" fill="white"/>
<path d="M147.445 149.166L238.823 192.558" stroke="black" stroke-width="1.2" stroke-miterlimit="10" stroke-linecap="round" stroke-linejoin="round"/>
<path d="M131.715 156.951L223.093 200.375" stroke="black" stroke-width="1.2" stroke-miterlimit="10" stroke-linecap="round" stroke-linejoin="round"/>
<path d="M163.174 141.349L254.552 184.773" stroke="black" stroke-width="1.2" stroke-miterlimit="10" stroke-linecap="round" stroke-linejoin="round"/>
<path d="M147.445 217.955L173.065 230.111" stroke="#6EDBFF" stroke-width="1.2" stroke-miterlimit="10" stroke-linecap="round" stroke-linejoin="round"/>
<path d="M81.687 186.687L140.936 214.86" stroke="#6EDBFF" stroke-width="1.2" stroke-miterlimit="10" stroke-linecap="round" stroke-linejoin="round"/>
<path d="M103.575 212.371L157.336 237.896" stroke="#6EDBFF" stroke-width="1.2" stroke-miterlimit="10" stroke-linecap="round" stroke-linejoin="round"/>
<path d="M65.958 194.504L86.601 204.299" stroke="#6EDBFF" stroke-width="1.2" stroke-miterlimit="10" stroke-linecap="round" stroke-linejoin="round"/>
<path d="M90.0788 226.41C87.8773 225.325 84.5591 225.357 82.6129 226.474C80.6666 227.59 80.89 229.345 83.0915 230.43C85.293 231.515 88.643 231.483 90.5893 230.366C92.5036 229.249 92.2803 227.495 90.0788 226.41Z" stroke="black" stroke-width="1.2" stroke-miterlimit="10" stroke-linecap="round" stroke-linejoin="round"/>
<path d="M174.246 131.491L39.1892 200.215L35.6157 198.524L174.246 127.981L288.468 179.7L285.022 181.614L174.246 131.491Z" fill="black"/>
<path d="M197.537 196.355L151.625 174.212L181.52 87.6841L228.932 107.051L197.537 196.355Z" fill="black" stroke="black" stroke-width="1.2" stroke-miterlimit="10" stroke-linecap="round" stroke-linejoin="round"/>
<path d="M235.632 109.794L223.029 104.658L197.537 177.147L151.625 155.005L175.713 85.291L166.716 81.6218L219.552 30.5728L235.632 109.794Z" fill="#6EDBFF" stroke="black" stroke-width="1.2" stroke-miterlimit="10" stroke-linecap="round" stroke-linejoin="round"/>
<path d="M178.585 127.566L197.537 196.546L162.026 180.912L178.585 127.566Z" fill="#6EDBFF" stroke="black" stroke-width="1.2" stroke-miterlimit="10" stroke-linecap="round" stroke-linejoin="round"/>
<path d="M150.508 224.464L142.34 230.781L103.255 212.276L137.522 110.688L178.553 127.566L182.318 137.393L151.943 222.454C151.688 223.251 151.178 223.953 150.508 224.464Z" fill="black" stroke="black" stroke-width="1.2" stroke-miterlimit="10" stroke-linecap="round" stroke-linejoin="round"/>
<path d="M142.34 230.781L97.0659 209.34L130.28 110.911C130.854 109.22 132.736 108.359 134.396 109.061L178.553 127.566L142.34 230.781Z" fill="#6EDBFF" stroke="black" stroke-width="1.2" stroke-miterlimit="10" stroke-linecap="round" stroke-linejoin="round"/>
<path d="M175.043 137.68L197.537 196.546V177.147L178.585 127.566L175.043 137.68Z" fill="black" stroke="black" stroke-width="1.2" stroke-miterlimit="10" stroke-linecap="round" stroke-linejoin="round"/>
<path d="M279.598 130.31L286.202 146.103L298.646 139.243V120.93L281.034 114.07L267.155 119.526L279.598 130.31Z" fill="#6EDBFF" stroke="black" stroke-width="1.2" stroke-miterlimit="10" stroke-linecap="round" stroke-linejoin="round"/>
<path d="M267.155 137.17L286.202 146.103V127.789L267.155 119.526V137.17Z" fill="white" stroke="black" stroke-width="1.2" stroke-miterlimit="10" stroke-linecap="round" stroke-linejoin="round"/>
<path d="M286.203 127.789L298.646 120.93" stroke="black" stroke-width="1.2" stroke-miterlimit="10" stroke-linecap="round" stroke-linejoin="round"/>
<path d="M303.017 139.531L309.621 155.324L322.065 148.465V106.987L303.017 100.127L290.574 106.987L303.017 139.531Z" fill="#6EDBFF" stroke="black" stroke-width="1.2" stroke-miterlimit="10" stroke-linecap="round" stroke-linejoin="round"/>
<path d="M290.574 146.391L309.621 155.324V113.847L290.574 106.987V146.391Z" fill="white" stroke="black" stroke-width="1.2" stroke-miterlimit="10" stroke-linecap="round" stroke-linejoin="round"/>
<path d="M309.622 113.847L322.065 106.987" stroke="black" stroke-width="1.2" stroke-miterlimit="10" stroke-linecap="round" stroke-linejoin="round"/>
<path d="M327.52 149.613L334.125 165.406L346.568 158.547V89.7899L327.52 82.9302L315.077 89.7899L327.52 149.613Z" fill="#6EDBFF" stroke="black" stroke-width="1.2" stroke-miterlimit="10" stroke-linecap="round" stroke-linejoin="round"/>
<path d="M315.077 156.473L334.125 165.406V96.6178L315.077 89.79V156.473Z" fill="white" stroke="black" stroke-width="1.2" stroke-miterlimit="10" stroke-linecap="round" stroke-linejoin="round"/>
<path d="M334.125 96.6178L346.568 89.79" stroke="black" stroke-width="1.2" stroke-miterlimit="10" stroke-linecap="round" stroke-linejoin="round"/>
<path d="M120.738 58.9742C133.172 34.9526 139.649 13.6144 135.205 11.3139C130.761 9.01339 117.078 26.6218 104.644 50.6433C92.2097 74.6649 85.7328 96.0031 90.1771 98.3036C94.6215 100.604 108.304 82.9957 120.738 58.9742Z" fill="black" stroke="black" stroke-width="1.2" stroke-miterlimit="10" stroke-linecap="round" stroke-linejoin="round"/>
<path d="M131.428 29.0413L135.193 11.3337L126.292 7.85596L81.2407 94.8308L90.1743 98.3085L131.428 29.0413Z" fill="black" stroke="black" stroke-width="1.2" stroke-miterlimit="10" stroke-linecap="round" stroke-linejoin="round"/>
<path d="M111.815 55.5045C124.25 31.4829 130.726 10.1447 126.282 7.84417C121.838 5.54366 108.155 23.152 95.7209 47.1736C83.2868 71.1951 76.8099 92.5334 81.2543 94.8339C85.6987 97.1344 99.3814 79.526 111.815 55.5045Z" fill="#6EDBFF" stroke="black" stroke-width="1.2" stroke-miterlimit="10" stroke-linecap="round" stroke-linejoin="round"/>
<path d="M92.8228 81.8773C96.8429 76.0705 101.342 68.4769 105.681 59.9262C114.678 42.059 119.879 26.0105 118.443 21.2565C119.847 19.1827 121.219 17.3002 122.527 15.5454C124.186 20.0441 118.985 36.2841 109.828 54.4065C103.958 66.0521 97.7362 75.9428 92.8228 81.8773Z" fill="white"/>
<path d="M73.424 152.708L71.1587 155.356L70.3929 156.249C66.6919 159.695 58.2369 157.685 51.1219 151.527C43.7198 145.146 40.5292 136.691 43.9751 132.671L47.0061 129.289L48.4737 130.597C52.7172 130.246 58.524 132.512 63.6608 136.946C69.021 141.573 72.1797 147.284 72.1797 151.591L73.424 152.708Z" fill="black" stroke="black" stroke-width="1.2" stroke-miterlimit="10" stroke-linecap="round" stroke-linejoin="round"/>
<path d="M73.0764 153.149C76.5403 149.133 73.3454 140.7 65.9402 134.313C58.5351 127.926 49.7239 126.004 46.2599 130.02C42.7959 134.036 45.9909 142.469 53.396 148.856C60.8012 155.243 69.6124 157.166 73.0764 153.149Z" fill="white" stroke="black" stroke-width="1.2" stroke-miterlimit="10" stroke-linecap="round" stroke-linejoin="round"/>
<path d="M69.3715 141.03C67.9995 138.924 65.8938 136.819 63.2456 135.096C57.7259 131.522 51.7277 130.788 48.8562 133.118C48.3457 132.384 47.899 131.682 47.5161 130.948C50.3238 128.491 56.4178 129.193 62.0332 132.83C65.6385 135.16 68.2229 138.191 69.3715 141.03Z" fill="#6EDBFF"/>
<path d="M32.3287 59.2879L37.1784 65.3819C37.5931 65.8924 38.4546 66.2433 39.1246 66.1476L46.3353 65.3819C47.0053 65.2862 47.7391 64.7119 47.9625 64.0738L50.834 56.8312C51.0892 56.225 50.9297 55.2678 50.5149 54.7573L45.6653 48.6633C45.2505 48.1528 44.389 47.8019 43.719 47.8976L36.5083 48.6633C35.8383 48.759 35.1045 49.3333 34.8811 49.9715L32.0096 57.214C31.7544 57.8202 31.9139 58.7455 32.3287 59.2879Z" fill="black" stroke="black" stroke-width="1.2" stroke-miterlimit="10" stroke-linecap="round" stroke-linejoin="round"/>
<path d="M34.8815 49.9717C35.1367 49.3655 35.8705 48.7593 36.5086 48.6635L43.7193 47.8978C44.3255 47.8021 45.0913 48.0892 45.5379 48.5359C45.1551 48.185 44.7084 48.3126 44.4851 48.855L41.6136 56.0976C41.4859 56.4166 41.454 56.7995 41.5178 57.1823L31.9142 58.299C31.8504 57.9162 31.8823 57.5333 32.0099 57.2143L34.8815 49.9717Z" fill="white" stroke="black" stroke-width="1.2" stroke-miterlimit="10" stroke-linecap="round" stroke-linejoin="round"/>
<path d="M47.8991 64.2652C47.6439 64.7438 47.1653 64.7438 46.7824 64.2971L41.9328 58.1712C41.6775 57.8522 41.518 57.3736 41.518 56.895C41.518 56.9907 41.518 57.0865 41.5499 57.1822L31.9463 58.2989C32.0101 58.6817 32.1377 59.0327 32.3611 59.2879L37.2107 65.3819C37.6255 65.8924 38.487 66.2434 39.157 66.1477L46.3676 65.3819C46.942 65.3181 47.612 64.8076 47.8991 64.2652Z" fill="#6EDBFF" stroke="black" stroke-width="1.2" stroke-miterlimit="10" stroke-linecap="round" stroke-linejoin="round"/>
</svg>
